<?xml version="1.0" encoding="UTF-8"?><svg id="Layer_1" xmlns="http://www.w3.org/2000/svg" width="262.45" height="32.38" viewBox="0 0 262.45 32.38"><defs><style>.cls-1{fill:#4e2a84;}</style></defs><path class="cls-1" d="M1.05,2v1.22l2.99,3.37v23.09l-4.04,1.13v1.36h10.95v-1.36l-3.46-.93-.87-1.07V9.53l19.2,22.86h1.71V4.91l4.07-1.22v-1.45h-11.12v1.63l3.51.9.87,1.07v18.27-.03h-.23L5.98,2H1.05Z"/><path class="cls-1" d="M43.8,32.38c-5.43,0-10.63-3.49-10.63-10.89s5.52-11.07,10.63-11.07,10.72,3.34,10.72,10.72-5.69,11.24-10.72,11.24ZM50.3,21.75c0-5.05-2.76-9.35-7.09-9.35-3.89,0-5.84,3.4-5.84,8.45s2.44,9.5,7,9.5c3.89,0,5.92-3.51,5.92-8.6Z"/><path class="cls-1" d="M71.56,11.24s-.78-.26-2.27-.26c-3.17,0-6.48,4.97-6.48,4.97,0-2.76.09-5.11.09-5.11h-.35l-6.48,2.38v1.07c2.44,0,3.19,2.21,3.19,5.95v9.85l-2.99,1.13v1.16h10.4v-1.13l-2.93-1.02-.87-1.07v-9.67c0-2.99,2.35-4.65,4.88-4.65.52,0,1.05.12,1.51.29l.7,1.05.87.06.67-5.02.06.03Z"/><path class="cls-1" d="M87.39,28.72s-1.28.81-3.17.81c-2.03,0-3.89-1.13-3.83-3.92l.17-11.85h6.74l.09-.73.46-3.72-.87-.15-.64,1.42-.38.32-5.31.2h-.06v-5.37l-2.61.46-1.13,5.11-3.72.35v1.77c2.03,0,3.72.17,3.72,2.12s-.17,8.04-.17,10.48c0,4.62,1.77,6.33,4.71,6.33,2.53,0,4.62-1.05,6.51-2.58l-.49-1.05v-.03Z"/><path class="cls-1" d="M107.11,20.13c0-5.05-2.85-6.07-6.16-6.07-2.79,0-4.62,2.09-4.62,2.09v13.01l.87,1.07,2.93,1.02v1.13h-10.51v-1.16l2.99-1.13V8.34c0-3.95-.99-5.02-3.17-5.02v-1.05l6.68-2.27h.46s-.23,4.65-.23,8.13v6.27s4.33-3.49,7.32-3.49c3.72,0,7.14,1.54,7.14,7v11.21l.87,1.07,2.93,1.02v1.13h-10.51v-1.16l2.9-1.1.15-10.02-.06.06Z"/><path class="cls-1" d="M136.58,32.38l-4.85-13.42-5.55,13.42h-1.89l-5.46-16.58c-.75-2.09-1.22-3.31-2.64-3.31v-1.28h8.92v1.28l-2.73.9,4.07,13.74,3.57-8.6.84-2.18-1.22-3.49-1.54-.38v-1.28h8.63v1.37l-2.73.81,4.59,13.74,4.76-13.65-3.08-1.07v-1.16h8.1v1.28c-1.86.23-2.76.73-4.21,4.41l-5.46,15.45h-2.12Z"/><path class="cls-1" d="M153.95,20.24c0,6.27,3.57,8.92,7.64,8.92,2.53,0,5.55-1.05,5.55-1.05l.47.87c-1.08,1.07-4.12,3.4-7.9,3.4-5.14,0-9.76-3.83-9.76-10.89,0-6.42,4.41-11.07,9.93-11.07,4.3,0,7.64,2.58,7.64,7.46,0,1.28-.23,2.38-.23,2.38h-13.33v-.03ZM160.6,18.53c2.18-.09,2.93-.49,2.93-2.7,0-1.89-1.36-3.34-4.24-3.34s-5.34,2.67-5.34,6.27l6.65-.23Z"/><path class="cls-1" d="M170.59,31.57c-.32-.15-1.13-.58-1.16-1.54l-.26-4.3h1.98c.55,2.93,2.53,4.82,5.11,4.82s3.66-1.37,3.66-3.17-1.39-2.61-3.11-3.51l-2.29-1.16c-3.31-1.68-4.94-3.02-4.94-6.27,0-4.07,2.93-6.01,7.49-6.01,3.19,0,5.69,1.22,5.69,1.22l-.58,5.29h-1.86c0-3.31-1.37-4.53-4.12-4.53-1.86,0-3.57.73-3.57,2.53,0,1.45.58,2.09,4.15,3.92l2.03,1.05c3.72,1.89,4.73,3.49,4.73,6.56,0,3.72-3.72,5.92-7.32,5.92-2.29,0-4.33-.26-5.66-.81h.03Z"/><path class="cls-1" d="M199.37,28.72s-1.28.81-3.17.81c-2.03,0-3.89-1.13-3.83-3.92l.17-11.85h6.68l.09-.73.46-3.72-.87-.15-.64,1.42-.38.32-5.31.2v-5.37l-2.61.46-1.13,5.11-3.72.35v1.77c2.03,0,3.72.17,3.72,2.12s-.17,8.04-.17,10.48c0,4.62,1.77,6.33,4.71,6.33,2.53,0,4.62-1.05,6.51-2.58l-.49-1.05v-.03Z"/><path class="cls-1" d="M205.44,20.24c0,6.27,3.57,8.92,7.64,8.92,2.53,0,5.55-1.05,5.55-1.05l.47.87c-1.08,1.07-4.12,3.4-7.9,3.4-5.14,0-9.76-3.83-9.76-10.89,0-6.42,4.44-11.07,9.93-11.07,4.3,0,7.64,2.58,7.64,7.46,0,1.28-.23,2.38-.23,2.38h-13.33v-.03ZM212.09,18.53c2.18-.09,2.93-.49,2.93-2.7,0-1.89-1.36-3.34-4.24-3.34s-5.34,2.67-5.34,6.27l6.65-.23Z"/><path class="cls-1" d="M236.13,11.24s-.78-.26-2.26-.26c-3.17,0-6.48,4.97-6.48,4.97,0-2.76.09-5.11.09-5.11h-.35l-6.48,2.38v1.07c2.44,0,3.2,2.21,3.2,5.95v9.85l-2.99,1.13v1.16h10.4v-1.13l-2.93-1.02-.87-1.07v-9.67c0-2.99,2.35-4.65,4.88-4.65.52,0,1.04.12,1.51.29l.7,1.05.87.06.67-5.02.06.03Z"/><path class="cls-1" d="M259.51,30.2l-.87-1.07v-11.44c.03-5.29-3.4-6.77-6.91-6.77-2.99,0-7.17,3.49-7.17,3.49,0-1.89.09-3.6.09-3.6h-.35l-6.59,2.38v1.07c2.53,0,3.19,2.27,3.19,6.33v9.5l-2.99,1.13v1.16h10.4l.09-1.13-2.93-1.02-.87-1.07v-12.98s1.6-2.12,4.44-2.12,5.95,1.05,5.95,6.07l-.15,10.02-2.88,1.07v1.16h10.4l.09-1.13-2.93-1.02v-.03Z"/></svg>