<?xml version="1.0" standalone="no"?>
<!DOCTYPE svg PUBLIC "-//W3C//DTD SVG 20010904//EN"
 "http://www.w3.org/TR/2001/REC-SVG-20010904/DTD/svg10.dtd">
<svg version="1.0" xmlns="http://www.w3.org/2000/svg"
 width="2390.000000pt" height="1316.000000pt" viewBox="0 0 2390.000000 1316.000000"
 preserveAspectRatio="xMidYMid meet">

<g transform="translate(0.000000,1316.000000) scale(0.100000,-0.100000)"
fill="#000000" stroke="none">
<path d="M3974 13135 c-2 -11 -3 -141 -2 -290 l3 -270 125 -2 c379 -7 776 -50
1140 -124 158 -32 417 -97 520 -131 367 -119 588 -207 865 -345 594 -296 1116
-679 1615 -1183 480 -485 840 -980 1124 -1548 104 -207 125 -255 199 -442 206
-524 321 -1007 383 -1604 20 -198 30 -838 15 -1046 -76 -1079 -390 -2017 -965
-2875 -334 -500 -828 -1034 -1311 -1418 -33 -27 -67 -54 -76 -61 -16 -13 -175
-131 -264 -196 -63 -45 -370 -237 -450 -280 -33 -18 -64 -36 -70 -40 -5 -4
-91 -48 -190 -98 -514 -257 -1029 -423 -1615 -521 -283 -47 -530 -71 -825 -80
l-220 -6 -3 -287 -2 -288 182 0 c366 1 844 55 1263 145 556 118 1141 332 1616
590 323 175 696 417 929 602 371 295 711 615 990 933 41 47 77 87 81 90 3 3
32 39 64 80 33 41 63 77 66 80 22 19 237 317 336 465 494 739 783 1468 963
2430 53 282 81 618 87 1045 10 669 -45 1184 -188 1760 -212 857 -617 1671
-1193 2400 -281 356 -704 785 -1066 1081 -355 290 -744 547 -1135 750 -865
448 -1813 680 -2868 702 -111 2 -118 1 -123 -18z"/>
<path d="M15050 9015 l0 -835 90 0 89 0 3 393 3 392 26 55 c67 143 195 219
348 208 139 -10 242 -89 281 -215 19 -60 20 -93 20 -449 l0 -385 88 3 87 3 0
415 c0 444 -2 462 -52 564 -31 62 -103 139 -159 170 -99 56 -270 72 -382 38
-76 -24 -160 -80 -217 -145 l-45 -52 0 338 0 337 -90 0 -90 0 0 -835z"/>
<path d="M19242 9018 l3 -833 80 0 80 0 3 833 2 832 -85 0 -85 0 2 -832z"/>
<path d="M11250 9705 l0 -85 270 0 270 0 0 -720 0 -721 88 3 87 3 3 718 2 717
270 0 270 0 0 85 0 85 -630 0 -630 0 0 -85z"/>
<path d="M18265 9393 c-51 -5 -170 -40 -209 -61 -104 -56 -210 -158 -265 -254
-13 -24 -35 -77 -49 -118 -44 -132 -31 -318 33 -458 71 -154 242 -293 410
-333 75 -17 219 -15 300 6 222 55 392 230 450 460 22 90 16 242 -14 329 -57
162 -173 296 -320 370 -83 42 -239 69 -336 59z m209 -184 c308 -115 392 -535
155 -772 -158 -158 -413 -166 -582 -17 -196 173 -206 512 -19 698 46 47 142
97 213 112 62 13 169 3 233 -21z"/>
<path d="M20232 9389 c-215 -32 -413 -194 -490 -400 -56 -152 -42 -368 34
-509 81 -150 212 -256 373 -303 95 -27 253 -26 346 3 196 61 345 202 413 393
23 64 26 87 26 202 0 122 -2 135 -32 213 -53 137 -124 227 -241 304 -125 82
-286 118 -429 97z m223 -176 c212 -71 339 -301 295 -533 -15 -78 -72 -188
-126 -243 -158 -159 -429 -163 -593 -8 -88 83 -133 180 -146 319 -13 122 38
264 126 357 56 59 143 109 219 125 59 12 163 4 225 -17z"/>
<path d="M12836 9375 c-144 -40 -279 -149 -349 -282 -114 -217 -100 -495 33
-693 136 -201 408 -294 660 -223 95 26 223 104 284 172 l20 22 -50 49 c-27 27
-52 50 -56 50 -4 0 -24 -16 -45 -35 -125 -115 -338 -156 -494 -95 -131 51
-249 213 -249 342 l0 28 465 0 465 0 0 85 c0 145 -32 255 -106 367 -72 108
-174 180 -301 213 -70 18 -210 18 -277 0z m193 -135 c35 -6 84 -21 110 -35 46
-23 114 -88 143 -135 23 -39 55 -130 62 -182 l7 -48 -380 0 c-433 0 -393 -10
-366 93 43 164 160 282 305 307 25 4 47 8 50 9 3 0 34 -4 69 -9z"/>
<path d="M14180 9371 c-205 -57 -361 -200 -431 -396 -33 -93 -37 -247 -10
-358 45 -180 156 -319 315 -397 119 -59 190 -74 311 -67 160 10 281 63 400
178 l50 48 -55 50 c-30 28 -57 50 -60 50 -3 0 -27 -20 -55 -44 -161 -143 -373
-165 -543 -56 -191 122 -258 403 -148 620 40 78 119 156 194 193 63 31 73 33
178 33 107 0 112 -1 185 -37 40 -21 96 -58 122 -84 l48 -47 50 49 c79 77 79
75 2 139 -157 129 -367 177 -553 126z"/>
<path d="M16859 9371 c-92 -30 -192 -100 -236 -168 l-18 -27 -5 94 -5 95 -85
0 -85 0 0 -590 0 -590 85 0 85 0 5 400 5 400 35 65 c42 78 117 142 192 165 74
21 185 20 250 -5 68 -25 139 -96 170 -170 22 -54 23 -64 26 -457 l3 -403 85 0
84 0 0 418 c0 245 -5 435 -11 461 -26 112 -116 235 -206 280 -105 52 -267 66
-374 32z"/>
<path d="M21551 9374 c-201 -54 -346 -202 -397 -404 -25 -101 -16 -254 22
-347 95 -235 328 -372 584 -342 137 16 237 67 344 175 l58 59 -4 -131 c-4
-128 -5 -133 -41 -207 -71 -143 -189 -207 -384 -207 -150 0 -275 34 -391 107
-29 18 -56 33 -60 33 -4 0 -24 -30 -45 -66 -44 -78 -49 -70 88 -139 54 -27
133 -56 195 -71 95 -24 118 -26 240 -21 200 8 313 49 418 153 71 71 123 170
141 268 7 38 11 252 11 598 l0 538 -85 0 -84 0 -3 -102 -3 -102 -45 48 c-107
114 -253 176 -413 175 -51 0 -116 -7 -146 -15z m265 -145 c137 -25 262 -116
320 -234 26 -54 29 -70 29 -160 0 -93 -2 -105 -33 -167 -38 -78 -121 -159
-198 -195 -109 -50 -247 -55 -356 -12 -124 47 -233 187 -247 316 -24 221 87
392 289 445 78 20 117 22 196 7z"/>
<path d="M22576 9362 c-3 -5 7 -35 23 -68 42 -88 73 -155 136 -294 32 -69 75
-163 97 -210 37 -78 181 -392 230 -500 11 -25 27 -57 34 -71 12 -24 11 -33
-16 -87 -71 -142 -173 -188 -320 -147 -85 24 -82 26 -111 -45 l-26 -65 26 -14
c38 -21 160 -51 207 -51 57 0 138 16 182 37 20 9 62 42 92 73 61 62 106 146
190 355 64 159 211 522 337 830 52 127 95 237 96 245 2 12 -14 15 -88 15 l-90
0 -43 -110 c-23 -60 -61 -157 -83 -215 -50 -129 -97 -248 -109 -275 -5 -11
-24 -60 -43 -110 -86 -227 -102 -264 -109 -257 -5 5 -39 80 -77 168 -84 194
-183 423 -246 564 -25 58 -52 121 -60 141 -36 98 -34 97 -134 98 -49 1 -92 -2
-95 -7z"/>
<path d="M0 8405 l0 -605 485 0 485 0 0 -1830 0 -1830 770 0 770 0 0 1830 0
1830 485 0 485 0 0 605 0 605 -1740 0 -1740 0 0 -605z"/>
<path d="M3975 8998 c-3 -7 -4 -1102 -3 -2433 l3 -2420 768 -3 767 -2 0 2435
0 2435 -765 0 c-603 0 -767 -3 -770 -12z"/>
<path d="M6510 6575 l0 -2435 768 2 767 3 3 2433 2 2432 -770 0 -770 0 0
-2435z"/>
<path d="M19867 7594 c-4 -4 -7 -49 -7 -101 l0 -93 100 0 101 0 -3 98 -3 97
-90 3 c-50 1 -94 0 -98 -4z"/>
<path d="M11790 6760 l0 -800 90 0 90 0 0 800 0 800 -90 0 -90 0 0 -800z"/>
<path d="M19040 7320 l0 -180 -85 0 -85 0 0 -75 0 -74 83 -3 82 -3 5 -415 5
-415 28 -57 c32 -65 82 -107 167 -139 46 -18 70 -20 145 -16 56 3 109 12 140
25 l50 20 3 71 c2 39 0 71 -4 71 -3 0 -31 -7 -62 -16 -66 -20 -160 -15 -212
11 -20 9 -47 33 -60 53 l-25 36 0 385 0 386 185 5 185 5 3 73 3 72 -191 0
-190 0 0 180 0 180 -85 0 -85 0 0 -180z"/>
<path d="M12835 7161 c-91 -22 -196 -88 -246 -155 -19 -25 -37 -46 -41 -46 -5
0 -8 41 -8 90 l0 90 -85 0 -85 0 0 -590 0 -590 84 0 85 0 3 388 c5 432 5 433
76 527 76 101 214 151 348 126 118 -21 198 -90 239 -206 16 -44 19 -96 23
-442 l4 -393 84 0 85 0 -3 433 c-4 422 -4 433 -27 495 -50 137 -153 230 -296
268 -53 15 -189 17 -240 5z"/>
<path d="M14205 7160 c-103 -26 -193 -82 -254 -160 l-41 -52 0 96 0 97 -87 -3
-88 -3 -3 -587 -2 -588 89 0 90 0 3 393 c4 459 3 452 103 552 77 77 135 100
255 99 108 0 172 -26 234 -95 80 -89 80 -90 84 -546 l3 -403 90 0 89 0 0 393
c0 303 -4 407 -15 460 -38 183 -144 298 -310 342 -62 16 -188 19 -240 5z"/>
<path d="M15540 7163 c-45 -7 -124 -35 -180 -63 -128 -64 -234 -183 -291 -324
-28 -71 -33 -96 -37 -196 -5 -133 8 -197 62 -314 42 -92 160 -215 253 -264
357 -188 797 5 897 394 20 78 21 222 1 299 -71 279 -325 479 -604 474 -42 -1
-87 -4 -101 -6z m231 -173 c101 -34 184 -101 241 -195 83 -134 87 -328 12
-477 -30 -59 -117 -149 -172 -177 -101 -51 -231 -65 -333 -35 -185 54 -310
230 -311 439 -2 225 117 397 312 451 72 20 182 17 251 -6z"/>
<path d="M20860 7163 c-88 -15 -210 -71 -288 -132 -150 -119 -244 -328 -227
-506 26 -284 172 -479 425 -569 69 -25 230 -31 320 -12 207 43 389 203 455
399 137 409 -166 833 -590 825 -38 0 -81 -3 -95 -5z m273 -191 c127 -58 219
-179 253 -332 42 -186 -61 -421 -221 -503 -160 -81 -366 -56 -491 60 -194 181
-204 498 -23 686 91 94 179 128 324 123 76 -2 100 -7 158 -34z"/>
<path d="M22290 7151 c-88 -28 -141 -60 -197 -118 -29 -30 -53 -59 -53 -64 0
-5 -4 -9 -10 -9 -6 0 -10 37 -10 90 l0 90 -87 0 -88 0 3 -590 2 -590 85 0 85
0 0 328 c1 360 8 449 44 527 65 142 222 217 391 185 111 -21 183 -82 228 -192
21 -51 22 -70 25 -450 l3 -398 85 0 85 0 -3 433 -4 432 -28 74 c-35 87 -114
180 -188 217 -108 55 -261 70 -368 35z"/>
<path d="M18020 7153 c-116 -18 -267 -65 -290 -89 -4 -5 4 -40 18 -77 20 -54
28 -67 41 -61 116 50 191 67 307 72 99 4 132 1 180 -14 121 -38 186 -117 206
-251 7 -45 10 -85 7 -88 -3 -3 -46 4 -95 14 -348 76 -634 2 -739 -191 -25 -45
-30 -67 -33 -143 -5 -120 19 -189 93 -260 186 -182 520 -175 719 16 l41 38 3
-79 3 -80 84 0 85 0 0 413 c0 439 -2 464 -51 564 -50 101 -162 178 -305 208
-63 13 -213 18 -274 8z m294 -608 c54 -8 116 -20 137 -25 l39 -11 0 -78 c0
-105 -20 -168 -74 -228 -123 -137 -365 -174 -515 -78 -46 29 -67 52 -86 98
-19 45 -20 137 -2 180 17 40 84 101 134 123 81 35 217 42 367 19z"/>
<path d="M16360 7130 c0 -6 19 -55 42 -108 22 -53 56 -131 73 -172 116 -271
158 -369 170 -395 8 -16 59 -136 114 -265 l100 -235 81 0 81 0 23 55 c12 30
64 152 116 270 51 118 108 249 125 290 18 41 78 181 135 310 56 129 105 241
107 248 4 10 -16 12 -92 10 l-97 -3 -55 -135 c-153 -377 -189 -466 -243 -600
-32 -80 -67 -165 -79 -190 l-20 -45 -14 35 c-53 128 -168 409 -220 535 -33 83
-84 206 -112 275 l-52 125 -92 3 c-61 2 -91 -1 -91 -8z"/>
<path d="M19870 6550 l0 -590 90 0 90 0 -2 588 -3 587 -87 3 -88 3 0 -591z"/>
<path d="M15697 5344 c-4 -4 -7 -49 -7 -101 l0 -93 100 0 101 0 -3 98 -3 97
-90 3 c-50 1 -94 0 -98 -4z"/>
<path d="M11790 4513 l0 -803 90 0 90 0 0 803 0 802 -90 0 -90 0 0 -802z"/>
<path d="M14868 5073 l-3 -178 -82 -3 -83 -3 0 -74 0 -74 83 -3 82 -3 5 -420
5 -420 30 -55 c39 -71 115 -124 203 -142 73 -14 219 0 271 26 30 16 31 18 31
91 l0 75 -42 -18 c-29 -11 -70 -17 -123 -17 -100 0 -149 22 -179 80 -20 38
-21 59 -24 423 l-3 382 191 0 191 0 -3 73 -3 72 -187 3 -188 2 0 180 0 180
-85 0 -85 0 -2 -177z"/>
<path d="M16306 5243 c-4 -4 -6 -84 -5 -178 l1 -170 -81 -3 -81 -3 0 -74 0
-75 80 0 80 0 0 -357 c0 -389 7 -468 45 -543 28 -56 98 -114 159 -133 62 -18
220 -14 286 9 l55 19 3 77 c3 75 2 76 -20 71 -13 -3 -29 -11 -37 -17 -8 -6
-54 -11 -105 -11 -105 0 -147 17 -181 75 -19 33 -20 54 -23 423 l-3 387 186 0
185 0 0 75 0 75 -185 0 -185 0 0 180 0 180 -83 0 c-46 0 -87 -3 -91 -7z"/>
<path d="M18550 5070 l0 -179 -82 -3 -83 -3 0 -70 0 -70 83 -3 82 -3 0 -387
c0 -430 3 -457 61 -543 65 -95 207 -139 362 -109 36 6 79 20 96 31 29 18 31
22 31 82 0 35 -3 66 -6 70 -4 3 -19 0 -34 -8 -41 -21 -156 -30 -210 -15 -25 6
-56 22 -68 33 -52 48 -52 49 -52 462 l0 385 185 0 185 0 0 75 0 75 -185 0
-185 0 0 180 0 180 -90 0 -90 0 0 -180z"/>
<path d="M12826 4909 c-65 -15 -158 -71 -213 -128 -29 -29 -53 -58 -53 -62 0
-5 -4 -9 -10 -9 -6 0 -10 37 -10 90 l0 90 -85 0 -85 0 0 -590 0 -590 84 0 85
0 3 388 c3 377 4 388 26 445 27 65 98 144 158 175 44 22 128 42 177 42 52 0
144 -27 186 -55 50 -33 94 -96 116 -165 16 -48 19 -108 23 -442 l4 -388 85 0
84 0 -3 433 c-4 411 -5 435 -25 488 -55 148 -151 236 -298 275 -56 15 -190 17
-249 3z"/>
<path d="M19721 4904 c-170 -36 -312 -149 -388 -305 -54 -112 -67 -173 -66
-302 1 -130 14 -187 63 -293 47 -102 145 -206 237 -253 110 -55 202 -74 328
-68 165 7 298 63 401 168 l47 47 -54 50 -53 50 -46 -40 c-63 -56 -143 -94
-240 -114 -70 -14 -94 -15 -154 -5 -73 12 -162 51 -211 92 -60 51 -120 165
-140 266 l-7 33 469 2 468 3 -1 110 c-1 133 -31 231 -101 337 -42 64 -138 158
-161 158 -6 0 -17 6 -24 13 -31 30 -183 68 -268 66 -19 0 -64 -7 -99 -15z
m264 -170 c115 -57 215 -215 215 -336 l0 -28 -380 0 -380 0 6 28 c32 144 59
200 130 269 79 78 151 104 272 99 66 -3 93 -9 137 -32z"/>
<path d="M13950 4895 c-155 -44 -247 -150 -258 -296 -6 -90 11 -148 59 -203
63 -71 137 -106 379 -178 184 -55 240 -103 240 -204 0 -95 -77 -162 -206 -179
-95 -13 -278 40 -390 111 l-52 33 -42 -55 c-23 -30 -39 -61 -37 -68 8 -20 116
-80 203 -114 136 -52 260 -63 392 -36 135 28 242 110 284 220 23 63 24 169 1
226 -37 93 -148 172 -307 219 -176 51 -269 92 -313 136 -37 36 -43 49 -43 83
0 70 40 124 115 156 87 37 271 9 402 -60 l62 -33 36 59 c19 33 35 64 35 69 0
14 -152 84 -225 104 -87 24 -266 29 -335 10z"/>
<path d="M15700 4300 l0 -590 85 0 85 0 0 590 0 590 -85 0 -85 0 0 -590z"/>
<path d="M17107 4883 c-11 -11 -8 -725 4 -810 11 -81 50 -182 95 -240 36 -47
131 -109 200 -129 87 -26 242 -23 313 5 71 29 146 83 199 143 l42 49 0 -96 0
-96 88 3 87 3 0 585 0 585 -87 3 -87 3 -3 -393 -3 -393 -33 -67 c-38 -77 -92
-130 -171 -166 -75 -35 -211 -37 -282 -5 -69 31 -122 85 -155 155 l-29 63 -3
403 -3 402 -83 0 c-45 0 -86 -3 -89 -7z"/>
</g>
</svg>
