<?xml version="1.0" standalone="no"?>
<!DOCTYPE svg PUBLIC "-//W3C//DTD SVG 20010904//EN"
 "http://www.w3.org/TR/2001/REC-SVG-20010904/DTD/svg10.dtd">
<svg version="1.0" xmlns="http://www.w3.org/2000/svg"
 width="65.000000pt" height="36.000000pt" viewBox="0 0 65.000000 36.000000"
 preserveAspectRatio="xMidYMid meet">

<g transform="translate(0.000000,36.000000) scale(0.100000,-0.100000)"
fill="#000000" stroke="none">
<path d="M383 333 c-23 -4 -33 -23 -13 -23 6 0 10 -40 10 -100 0 -84 -3 -101
-17 -109 -14 -8 -9 -10 26 -11 39 0 43 2 27 13 -16 12 -17 27 -14 125 1 62 3
111 3 111 0 -1 -10 -4 -22 -6z"/>
<path d="M12 313 c10 -2 33 -31 53 -62 26 -44 35 -70 35 -104 0 -39 -3 -46
-22 -50 -13 -2 6 -5 42 -5 58 -2 62 0 40 11 -40 20 -38 65 6 138 21 34 47 65
59 69 14 6 6 9 -30 8 -27 0 -42 -2 -32 -5 9 -2 17 -8 17 -11 0 -12 -45 -92
-52 -92 -3 0 -18 20 -31 45 -23 41 -24 46 -9 55 13 7 2 9 -38 9 -30 -1 -47 -3
-38 -6z"/>
<path d="M225 220 c-15 -17 -16 -20 -3 -20 9 0 18 7 22 15 10 27 36 17 36 -14
0 -25 -6 -31 -36 -41 -30 -10 -35 -16 -32 -38 2 -20 9 -28 28 -30 20 -3 23 -1
13 9 -12 12 -18 49 -9 49 2 0 12 3 22 7 14 5 16 1 12 -25 -2 -17 -1 -29 4 -26
4 3 8 0 8 -5 0 -14 37 -14 45 -1 3 6 -1 10 -9 10 -11 0 -16 15 -18 63 -3 61
-3 62 -34 65 -20 2 -36 -4 -49 -18z"/>
<path d="M477 223 c-33 -37 -30 -101 7 -125 18 -13 61 -9 82 7 18 14 17 14
-14 9 -39 -8 -72 16 -72 53 0 21 4 23 50 23 54 0 55 1 40 31 -14 25 -71 26
-93 2z m71 -10 c2 -9 -7 -13 -27 -13 -30 0 -39 9 -24 24 11 10 46 3 51 -11z"/>
</g>
</svg>
